<?xml version="1.0" standalone="no"?>
<!DOCTYPE svg PUBLIC "-//W3C//DTD SVG 20010904//EN"
 "http://www.w3.org/TR/2001/REC-SVG-20010904/DTD/svg10.dtd">
<svg version="1.0" xmlns="http://www.w3.org/2000/svg"
 width="512.000000pt" height="512.000000pt" viewBox="0 0 512.000000 512.000000"
 preserveAspectRatio="xMidYMid meet">

<g transform="translate(0.000000,512.000000) scale(0.100000,-0.100000)"
fill="#000000" stroke="none">
<path d="M2245 4939 c-235 -13 -418 -65 -664 -186 -188 -93 -290 -159 -446
-290 -192 -160 -305 -285 -463 -513 -156 -226 -202 -330 -151 -343 15 -4 23 1
30 21 32 84 145 265 265 425 94 126 294 330 411 420 88 67 263 177 362 226
425 214 823 242 1356 94 325 -90 685 -269 846 -420 37 -35 69 -63 72 -63 2 0
7 9 10 20 6 23 -125 154 -216 213 -282 187 -793 365 -1126 392 -134 11 -159
12 -286 4z"/>
<path d="M3277 4873 c-21 -20 -3 -43 51 -68 350 -164 562 -303 805 -530 260
-243 471 -568 622 -960 105 -271 153 -472 136 -570 -5 -33 -12 -125 -15 -205
-3 -80 -15 -210 -27 -290 -26 -168 -29 -212 -12 -217 23 -8 42 43 62 162 48
293 58 639 22 790 -78 328 -242 686 -462 1005 -102 148 -179 232 -331 367
-247 217 -423 334 -695 461 -136 64 -145 67 -156 55z"/>
<path d="M2110 4786 c-338 -44 -605 -164 -859 -385 -105 -92 -506 -564 -609
-717 -23 -34 -48 -64 -57 -67 -35 -14 -3 -73 33 -60 7 3 40 46 74 96 78 118
176 243 257 332 35 39 108 122 161 185 142 168 220 244 312 304 266 173 496
246 858 271 190 14 545 -35 767 -106 213 -68 522 -240 672 -374 65 -58 91 -68
91 -36 0 49 -270 246 -484 353 -163 82 -376 153 -556 185 -179 31 -491 40
-660 19z"/>
<path d="M2217 4660 c-264 -25 -565 -127 -801 -269 -94 -57 -115 -76 -98 -93
12 -12 14 -11 177 81 134 74 214 109 367 155 316 96 555 108 888 45 318 -60
641 -191 894 -363 43 -29 73 -43 78 -38 16 16 -6 45 -64 84 -285 193 -566 307
-933 378 -125 25 -364 34 -508 20z"/>
<path d="M2075 4568 c-425 -120 -603 -213 -887 -461 -109 -97 -264 -268 -331
-366 -28 -42 -71 -103 -95 -136 -59 -80 -83 -134 -71 -157 5 -10 15 -18 22
-18 7 0 39 46 72 102 229 391 545 684 921 857 103 47 341 127 406 137 57 9 78
21 78 44 0 25 -21 24 -115 -2z"/>
<path d="M2232 4464 c-226 -29 -354 -63 -519 -139 -162 -75 -373 -234 -530
-399 -93 -99 -178 -219 -167 -238 13 -21 37 -1 102 85 87 115 151 181 278 283
258 209 433 292 714 340 116 20 181 25 330 25 260 1 385 -17 593 -83 98 -31
129 -33 85 -5 -38 25 -315 105 -437 127 -132 23 -289 25 -449 4z"/>
<path d="M3040 4416 c0 -8 10 -18 23 -22 63 -19 278 -133 386 -205 146 -96
376 -314 489 -462 80 -104 183 -299 256 -484 29 -74 54 -123 62 -123 21 0 17
20 -25 137 -82 228 -163 387 -270 528 -178 234 -527 500 -795 604 -115 45
-126 47 -126 27z"/>
<path d="M2255 4385 c-104 -19 -268 -62 -338 -89 -150 -56 -397 -197 -411
-233 -16 -40 15 -34 101 20 123 77 205 121 298 158 100 40 333 99 389 99 54 0
86 21 67 44 -15 18 -12 18 -106 1z"/>
<path d="M2195 4276 c-117 -25 -193 -49 -316 -101 -74 -31 -218 -114 -269
-155 -46 -36 1 -21 89 30 329 190 723 246 1130 160 79 -16 146 -28 148 -27 8
8 -183 59 -325 87 -190 37 -300 39 -457 6z"/>
<path d="M3222 4238 c2 -7 40 -36 84 -64 200 -130 453 -357 569 -513 69 -91
178 -293 230 -426 20 -50 38 -81 48 -83 10 -2 17 3 17 12 0 59 -116 304 -212
448 -73 108 -269 313 -413 431 -182 149 -338 243 -323 195z"/>
<path d="M2060 4136 c-500 -176 -850 -462 -1180 -962 -102 -154 -165 -305
-177 -421 -8 -72 10 -70 67 9 70 96 369 443 381 443 7 0 17 -8 23 -17 12 -20
11 -21 -108 -155 -85 -95 -248 -296 -309 -380 -34 -47 -40 -51 -58 -40 -31 19
-39 -6 -39 -135 0 -192 38 -416 92 -538 29 -64 108 -179 124 -179 8 -1 5 22
-8 66 -25 91 -33 212 -19 303 17 110 63 197 175 326 131 152 527 540 611 599
39 27 88 63 110 81 59 47 255 161 343 199 42 19 133 50 202 70 69 20 136 41
150 47 83 37 -155 -7 -270 -49 -94 -35 -293 -133 -375 -187 -47 -30 -85 -52
-85 -47 0 12 235 177 551 386 252 166 482 336 502 371 27 47 -65 134 -112 105
-21 -13 -8 -33 29 -45 81 -26 48 -56 -365 -325 -443 -290 -559 -385 -814 -669
-46 -51 -115 -120 -155 -154 -39 -33 -142 -128 -228 -210 -91 -86 -158 -143
-158 -133 0 9 33 60 73 113 40 53 94 129 120 169 57 90 147 259 147 278 0 31
44 144 93 237 61 118 135 210 225 277 70 53 307 179 317 169 3 -3 -25 -27 -62
-54 -37 -26 -136 -116 -219 -198 -141 -140 -155 -158 -198 -246 -49 -99 -71
-200 -47 -214 6 -4 13 -1 15 6 43 158 114 289 214 391 81 84 295 260 366 303
81 48 214 91 317 103 84 9 109 8 73 -5 -26 -10 -316 -179 -389 -227 -84 -56
-255 -205 -255 -223 0 -24 16 -16 92 44 112 89 263 194 363 252 50 29 135 82
190 118 55 36 116 76 136 89 20 13 42 35 50 49 28 54 -24 98 -186 155 -49 18
-116 43 -147 56 -70 28 -104 28 -188 -1z m-972 -805 c-7 -20 -174 -231 -186
-236 -17 -6 -14 -2 80 133 44 61 86 112 95 112 8 0 13 -4 11 -9z m119 -327 c2
-6 -18 -38 -45 -70 -76 -91 -318 -408 -359 -470 -27 -41 -42 -54 -57 -52 -11
2 -22 11 -24 20 -4 19 150 232 273 378 39 47 92 113 119 148 36 47 53 62 69
60 11 -2 22 -8 24 -14z"/>
<path d="M3250 4091 c0 -5 44 -38 98 -74 178 -120 374 -310 475 -464 23 -35
45 -63 49 -63 40 0 -62 150 -189 277 -214 215 -433 379 -433 324z"/>
<path d="M4234 3986 c-4 -9 29 -85 79 -186 108 -213 154 -351 175 -528 14
-111 14 -147 4 -229 -14 -108 -6 -136 28 -95 36 44 39 270 5 449 -20 103 -78
261 -150 406 -83 166 -126 222 -141 183z"/>
<path d="M1394 3898 c-143 -108 -364 -341 -364 -385 0 -23 19 -6 122 107 53
58 133 137 179 175 143 121 155 133 143 145 -7 7 -30 -4 -80 -42z"/>
<path d="M2832 3888 c-17 -18 -72 -60 -121 -93 -56 -37 -91 -67 -91 -77 0 -27
22 -22 71 15 24 19 73 53 108 76 88 60 105 79 90 97 -16 20 -21 18 -57 -18z"/>
<path d="M2984 3876 c-11 -28 4 -48 33 -44 22 2 28 8 28 28 0 20 -6 26 -28 28
-18 2 -29 -2 -33 -12z"/>
<path d="M4145 3860 c-11 -18 117 -270 135 -267 30 5 20 46 -37 158 -55 108
-81 137 -98 109z"/>
<path d="M2891 3785 c-25 -20 -82 -59 -128 -87 -56 -34 -83 -56 -81 -67 5 -23
33 -25 55 -3 10 10 52 40 93 67 123 78 143 95 129 111 -16 19 -18 19 -68 -21z"/>
<path d="M3065 3788 c-163 -101 -235 -152 -232 -161 2 -6 57 -19 123 -28 202
-29 646 -170 679 -216 7 -10 16 -15 19 -12 3 3 -9 22 -26 41 -18 20 -50 57
-72 83 -43 51 -173 156 -311 248 -49 33 -91 64 -93 69 -7 15 -37 7 -87 -24z"/>
<path d="M4130 3646 c0 -9 20 -56 45 -105 129 -258 195 -571 181 -863 -7 -152
2 -175 31 -80 23 76 23 326 0 462 -30 177 -113 412 -190 541 -32 53 -67 76
-67 45z"/>
<path d="M4527 3533 c-3 -5 6 -36 19 -68 63 -148 120 -369 133 -510 5 -55 10
-70 23 -73 47 -9 38 122 -27 381 -40 160 -89 270 -122 275 -11 2 -23 -1 -26
-5z"/>
<path d="M2660 3476 c0 -3 24 -9 53 -15 198 -38 282 -56 356 -77 46 -14 85
-23 88 -21 8 9 -198 79 -287 97 -85 18 -210 27 -210 16z"/>
<path d="M794 3396 c-10 -25 0 -61 18 -64 21 -4 51 39 42 62 -8 20 -53 21 -60
2z"/>
<path d="M3920 3386 c0 -2 20 -48 44 -102 105 -238 162 -465 192 -766 5 -47
11 -68 20 -68 17 0 17 8 -1 188 -25 235 -68 402 -162 632 -37 89 -57 120 -80
120 -7 0 -13 -2 -13 -4z"/>
<path d="M2390 3179 c-232 -34 -477 -125 -677 -251 -101 -64 -73 -63 50 1 221
118 422 186 636 216 107 16 121 20 121 36 0 10 -51 10 -130 -2z"/>
<path d="M2585 3181 c-6 -10 17 -15 115 -26 102 -11 344 -63 435 -93 102 -34
182 -70 304 -137 97 -53 92 -38 -11 30 -139 94 -381 183 -592 220 -99 17 -242
20 -251 6z"/>
<path d="M265 3097 c-26 -41 -56 -135 -83 -267 -21 -104 -25 -154 -26 -300
l-1 -175 29 -52 c32 -57 52 -70 42 -25 -14 57 -18 348 -7 437 14 106 55 261
84 322 16 33 19 48 11 60 -16 26 -31 26 -49 0z"/>
<path d="M2387 3064 c-4 -4 -4 -31 -1 -61 l7 -53 -31 0 c-46 0 -288 -64 -381
-101 l-81 -32 -23 21 c-32 30 -40 27 -33 -11 6 -33 6 -33 -64 -64 -61 -28 -75
-30 -103 -21 -18 6 -36 15 -41 19 -6 5 -16 9 -23 9 -26 0 -12 -21 32 -48 l46
-28 -73 -47 c-69 -45 -176 -87 -222 -87 -12 0 -39 9 -61 20 -39 20 -52 20 -40
1 13 -22 72 -44 130 -50 l60 -6 -123 -132 c-119 -129 -122 -134 -122 -178 0
-35 6 -52 25 -70 24 -25 45 -31 58 -19 4 4 -7 22 -23 41 -17 18 -30 39 -30 46
0 17 76 89 122 115 l38 21 15 -28 c8 -16 30 -50 50 -76 20 -26 35 -49 32 -51
-2 -2 -18 1 -36 7 -36 13 -81 5 -81 -15 0 -8 48 -26 138 -49 75 -21 220 -64
322 -97 355 -115 452 -133 705 -134 162 0 190 2 286 26 136 34 314 99 407 149
143 76 297 210 342 299 17 34 26 41 43 37 168 -39 294 -50 335 -28 36 19 25
31 -30 31 -61 1 -145 32 -218 82 l-48 33 32 11 c66 24 113 54 159 103 50 53
66 93 20 48 -47 -44 -119 -70 -208 -74 -78 -4 -82 -3 -142 33 l-62 37 37 20
c69 36 117 73 120 90 3 15 -6 13 -54 -14 -69 -40 -137 -44 -202 -15 -23 10
-42 22 -42 25 0 3 15 21 33 40 17 18 25 31 17 28 -8 -3 -38 -16 -66 -28 l-52
-22 -173 56 c-141 46 -310 87 -360 87 -5 0 -9 21 -9 48 l0 47 -16 -30 c-26
-51 -32 -53 -163 -57 l-124 -3 -22 53 c-12 29 -24 49 -28 46z m293 -284 c162
-14 171 -18 218 -98 79 -131 90 -243 38 -358 -61 -134 -140 -202 -263 -230
-155 -34 -295 4 -387 107 -58 65 -87 142 -94 246 -4 78 -3 86 30 155 62 130
102 159 243 177 98 12 88 12 215 1z m-560 -151 c-50 -184 -5 -358 127 -484
102 -98 224 -130 403 -106 107 14 173 46 254 121 112 105 156 230 136 383 -6
45 -16 99 -21 121 -6 21 -8 40 -5 43 16 17 343 -117 406 -167 19 -15 57 -40
83 -55 27 -15 51 -34 54 -42 10 -25 -46 -118 -112 -185 -73 -73 -220 -167
-343 -217 -79 -33 -259 -79 -413 -107 -80 -14 -110 -15 -175 -6 -44 6 -108 14
-144 17 -140 14 -284 52 -455 120 -60 24 -129 48 -152 54 -128 34 -248 134
-277 229 -5 16 -3 22 7 22 8 0 30 11 50 25 l36 24 30 -63 c29 -60 103 -156
122 -156 4 0 -12 41 -36 92 -57 116 -60 160 -12 205 69 68 207 144 332 183 66
20 121 34 123 30 1 -4 -6 -41 -18 -81z m-270 48 c0 -2 -12 -14 -27 -28 l-28
-24 24 28 c23 25 31 32 31 24z"/>
<path d="M2527 2705 c-57 -14 -111 -63 -128 -113 -6 -19 -9 -63 -7 -98 3 -52
9 -70 34 -101 82 -103 226 -96 312 16 51 67 38 148 -38 235 -55 62 -102 79
-173 61z"/>
<path d="M2258 2533 c-39 -6 -35 -23 5 -23 49 0 107 12 107 21 0 9 -60 10
-112 2z"/>
<path d="M2858 2531 c-58 -8 -69 -17 -31 -25 34 -7 85 5 91 22 2 7 0 11 -5 11
-4 -1 -29 -5 -55 -8z"/>
<path d="M2291 2423 c-29 -15 -48 -29 -42 -31 11 -4 101 44 101 53 0 8 -3 7
-59 -22z"/>
<path d="M2840 2415 c7 -8 24 -15 39 -15 l26 1 -25 14 c-35 20 -57 20 -40 0z"/>
<path d="M2749 2306 c23 -27 51 -40 64 -27 8 8 6 11 -9 11 -11 0 -31 8 -44 17
-24 16 -24 16 -11 -1z"/>
<path d="M2350 2295 c-11 -13 -10 -14 4 -9 9 3 16 10 16 15 0 13 -6 11 -20 -6z"/>
<path d="M2580 2242 c0 -18 5 -32 10 -32 6 0 8 11 4 28 -10 39 -14 40 -14 4z"/>
<path d="M2710 2256 c0 -2 7 -9 15 -16 13 -11 14 -10 9 4 -5 14 -24 23 -24 12z"/>
<path d="M4469 2514 c-220 -148 -484 -377 -677 -587 -56 -61 -78 -107 -52
-107 6 0 79 69 163 154 229 231 438 403 644 530 98 61 118 79 108 96 -14 22
-48 6 -186 -86z"/>
<path d="M1387 2503 c-26 -2 -45 -8 -42 -14 9 -14 69 -11 91 6 10 8 15 14 9
13 -5 -1 -31 -3 -58 -5z"/>
<path d="M4530 2418 c-207 -134 -459 -335 -575 -460 -103 -111 -100 -107 -87
-120 10 -10 35 11 115 89 163 162 436 370 662 503 46 28 55 38 48 57 -9 24
-37 13 -163 -69z"/>
<path d="M3695 2321 c-68 -31 -185 -110 -185 -126 0 -12 13 -15 59 -15 41 0
65 -5 75 -16 18 -17 38 -11 30 10 -5 14 -42 32 -77 38 -24 4 102 86 168 110
l50 17 -40 0 c-22 0 -58 -8 -80 -18z"/>
<path d="M971 2297 c-32 -40 -65 -165 -56 -214 7 -39 25 -44 25 -7 0 38 28
142 50 185 18 34 17 49 0 49 -4 0 -13 -6 -19 -13z"/>
<path d="M383 2224 c-18 -47 47 -288 116 -429 42 -86 133 -229 118 -185 -3 8
-32 83 -65 165 -41 100 -69 191 -87 275 -14 69 -29 138 -33 155 -9 34 -39 46
-49 19z"/>
<path d="M977 2126 c-16 -42 -18 -105 -3 -139 20 -49 38 -49 24 0 -5 21 -8 63
-6 95 4 54 -3 75 -15 44z"/>
<path d="M3340 2047 c-22 -10 -16 -12 49 -17 46 -3 76 -10 79 -17 5 -18 19
-16 26 3 13 33 -99 56 -154 31z"/>
<path d="M4192 1917 c-97 -97 -118 -127 -89 -127 19 0 207 203 207 224 0 17
-24 -2 -118 -97z"/>
<path d="M1744 1981 c-23 -10 -44 -24 -48 -29 -13 -21 14 -22 46 -2 18 11 50
20 71 20 38 0 50 13 21 24 -25 10 -46 7 -90 -13z"/>
<path d="M3140 1967 c-52 -18 -104 -39 -115 -46 -34 -21 72 -6 159 23 98 33
131 33 152 1 19 -30 34 -32 34 -7 0 31 -36 55 -87 59 -35 2 -73 -5 -143 -30z"/>
<path d="M1864 1960 c-75 -33 -73 -61 3 -34 46 16 51 16 128 -4 123 -32 114
-9 -14 36 -75 26 -65 25 -117 2z"/>
<path d="M4034 1898 c-81 -79 -94 -100 -63 -106 19 -3 183 164 174 178 -12 20
-28 9 -111 -72z"/>
<path d="M2118 1865 c-34 -23 -58 -52 -58 -70 0 -4 19 9 42 29 23 20 57 39 76
42 24 5 30 9 20 15 -22 14 -41 10 -80 -16z"/>
<path d="M2950 1885 c0 -2 10 -15 23 -28 12 -12 32 -36 45 -52 l22 -30 -15 40
c-18 45 -42 75 -62 75 -7 0 -13 -2 -13 -5z"/>
<path d="M2335 1829 c-41 -40 -76 -109 -55 -109 4 0 10 10 14 23 3 12 27 44
52 70 59 61 50 74 -11 16z"/>
<path d="M2427 1827 c-33 -33 -57 -93 -57 -138 1 -16 8 -6 25 33 13 32 32 70
43 85 43 64 40 70 -11 20z"/>
<path d="M2687 1843 c-9 -9 -9 -23 1 -22 23 4 34 -6 64 -56 17 -30 34 -53 35
-51 2 2 -4 23 -12 47 -23 64 -66 105 -88 82z"/>
<path d="M2793 1811 c19 -22 41 -49 47 -61 19 -35 23 -15 5 22 -22 43 -55 78
-73 78 -9 0 -1 -15 21 -39z"/>
<path d="M3742 1748 c-29 -29 10 -68 48 -48 21 11 24 19 14 44 -7 19 -45 21
-62 4z"/>
<path d="M4031 1736 c-17 -20 -2 -46 25 -46 29 0 41 24 24 45 -16 19 -34 19
-49 1z"/>
<path d="M3495 1733 c-192 -44 -354 -106 -557 -210 -126 -65 -210 -124 -196
-139 4 -4 88 34 185 84 247 126 421 193 573 222 61 11 85 20 85 30 0 15 -50
23 -90 13z"/>
<path d="M431 1681 c-11 -7 -5 -27 29 -102 24 -52 52 -106 62 -121 20 -28 42
-36 53 -18 6 10 -111 250 -123 250 -4 0 -13 -4 -21 -9z"/>
<path d="M4311 1641 c-11 -11 -47 -60 -80 -110 -236 -350 -545 -621 -916 -801
-226 -111 -449 -174 -726 -206 -194 -22 -454 -6 -558 36 -42 16 -51 17 -67 5
-17 -13 -18 -15 -3 -30 20 -20 209 -69 333 -86 50 -7 177 -13 281 -13 215 0
295 13 515 84 149 47 392 166 537 263 98 65 125 73 137 41 13 -33 -272 -228
-489 -334 -150 -74 -264 -110 -429 -135 -235 -35 -561 -28 -718 16 -111 31
-134 33 -141 15 -3 -8 0 -22 8 -30 17 -16 154 -50 268 -65 96 -13 378 -14 509
-1 364 35 800 211 1129 456 109 81 326 292 411 399 112 142 258 375 258 413 0
35 -25 52 -62 41 -60 -17 -84 -11 -112 26 -30 39 -57 44 -85 16z m56 -168 c5
-14 -174 -230 -286 -347 -91 -94 -248 -236 -261 -236 -4 0 -10 7 -13 15 -4 9
17 35 56 72 134 124 296 293 371 388 44 55 86 106 95 113 17 14 33 12 38 -5z"/>
<path d="M3678 1633 c-61 -4 -68 -6 -68 -25 0 -21 2 -21 127 -14 70 4 129 9
132 11 2 2 1 11 -2 20 -7 16 -23 16 -189 8z"/>
<path d="M3405 1594 c-60 -13 -139 -33 -175 -43 -132 -41 -384 -181 -363 -202
7 -7 60 15 162 65 145 73 267 116 416 147 73 15 95 25 95 44 0 19 -1 18 -135
-11z"/>
<path d="M4038 1533 c-147 -181 -379 -393 -574 -523 -159 -107 -256 -157 -407
-209 -405 -140 -786 -132 -1222 24 -159 57 -185 63 -185 41 0 -48 297 -158
535 -196 302 -50 540 -33 819 57 351 113 632 300 937 623 145 153 193 215 185
235 -11 29 -34 15 -88 -52z"/>
<path d="M1662 1578 c-14 -14 -16 -44 -2 -53 18 -11 51 15 48 38 -3 25 -28 33
-46 15z"/>
<path d="M1957 1553 c-11 -11 -8 -48 5 -61 16 -16 30 -15 53 2 18 13 18 15 2
40 -17 25 -46 34 -60 19z"/>
<path d="M3620 1511 c-55 -5 -65 -9 -65 -25 0 -17 8 -19 93 -17 106 3 124 7
120 30 -4 18 -44 22 -148 12z"/>
<path d="M1857 1483 c-12 -12 -7 -60 7 -73 8 -6 25 -10 38 -8 30 4 38 56 12
75 -19 14 -47 17 -57 6z"/>
<path d="M3300 1464 c-225 -66 -310 -104 -310 -136 0 -11 37 -10 44 1 9 14
150 63 280 95 92 24 122 35 124 49 5 24 -33 22 -138 -9z"/>
<path d="M990 1401 c0 -18 96 -138 170 -211 89 -89 218 -188 269 -206 20 -7
37 -11 39 -10 10 11 -21 44 -87 90 -109 77 -238 193 -305 275 -52 63 -86 88
-86 62z"/>
<path d="M1316 1401 c-20 -32 216 -244 354 -319 194 -106 414 -178 619 -203
205 -24 466 15 673 102 164 69 407 223 386 244 -4 4 -42 -13 -85 -37 -148 -85
-168 -96 -273 -141 -330 -143 -586 -162 -929 -72 -108 29 -328 119 -408 167
-75 45 -252 189 -286 232 -28 37 -41 43 -51 27z"/>
<path d="M3484 1395 c-12 -31 6 -38 90 -30 75 6 102 17 90 37 -3 4 -43 8 -90
8 -65 0 -86 -3 -90 -15z"/>
<path d="M4449 1258 c-252 -336 -398 -480 -690 -678 -284 -193 -589 -305 -990
-364 -123 -18 -334 -20 -533 -5 -155 11 -186 8 -186 -20 0 -26 18 -29 250 -38
244 -9 338 -7 470 7 411 45 794 199 1140 458 250 188 691 682 666 747 -12 33
-39 10 -127 -107z"/>
<path d="M3285 1324 c-81 -54 -298 -161 -403 -198 -256 -91 -592 -99 -867 -20
-103 30 -272 107 -361 165 -67 43 -74 46 -74 24 0 -20 130 -110 220 -152 174
-81 316 -119 507 -134 122 -10 162 -9 276 5 200 25 363 73 530 157 118 60 257
162 257 190 0 16 -14 10 -85 -37z"/>
<path d="M1265 1270 c-3 -5 0 -18 7 -29 25 -40 242 -191 275 -191 35 0 4 34
-79 87 -51 33 -115 78 -141 101 -53 46 -53 46 -62 32z"/>
<path d="M3438 1255 c-9 -21 -9 -28 3 -40 21 -21 64 2 64 35 0 20 -6 26 -27
28 -22 3 -30 -2 -40 -23z"/>
<path d="M2985 1252 c-11 -2 -72 -19 -135 -37 -165 -47 -260 -65 -383 -72
-105 -6 -130 -14 -109 -35 14 -14 245 6 375 33 124 25 251 65 267 84 16 19 9
32 -15 27z"/>
<path d="M930 1158 c0 -24 182 -208 239 -241 55 -32 35 1 -54 90 -47 47 -100
105 -117 129 -34 48 -68 59 -68 22z"/>
<path d="M694 1139 c-13 -22 135 -199 266 -316 82 -74 260 -203 279 -203 16 1
31 18 26 31 -3 8 -23 24 -45 37 -109 62 -333 264 -440 396 -52 65 -72 77 -86
55z"/>
<path d="M3327 1081 c-154 -103 -459 -220 -667 -257 -170 -30 -428 -13 -611
40 -44 13 -82 19 -85 15 -32 -53 355 -131 571 -114 242 18 529 113 731 243 75
48 149 112 128 112 -5 0 -35 -18 -67 -39z"/>
<path d="M1720 981 c11 -21 22 -26 84 -37 28 -5 37 -4 32 5 -11 17 -82 51
-106 51 -17 0 -19 -3 -10 -19z"/>
</g>
</svg>
